<?xml version="1.0" encoding="UTF-8" standalone="no"?>
<!-- Created with Inkscape (http://www.inkscape.org/) -->

<svg
   xmlns:dc="http://purl.org/dc/elements/1.1/"
   xmlns:cc="http://creativecommons.org/ns#"
   xmlns:rdf="http://www.w3.org/1999/02/22-rdf-syntax-ns#"
   xmlns:svg="http://www.w3.org/2000/svg"
   xmlns="http://www.w3.org/2000/svg"
   xmlns:sodipodi="http://sodipodi.sourceforge.net/DTD/sodipodi-0.dtd"
   xmlns:inkscape="http://www.inkscape.org/namespaces/inkscape"
   width="600mm"
   height="400mm"
   viewBox="0 0 2125.9843 1417.3228"
   id="svg2"
   version="1.1"
   inkscape:version="0.91 r13725"
   sodipodi:docname="Logo 2.svg"
   inkscape:export-filename="C:\Users\Diogo Cordeiro\Desktop\Logo\Logo 1.png"
   inkscape:export-xdpi="90"
   inkscape:export-ydpi="90">
  <defs
     id="defs4" />
  <sodipodi:namedview
     id="base"
     pagecolor="#ffffff"
     bordercolor="#666666"
     borderopacity="1.0"
     inkscape:pageopacity="0.0"
     inkscape:pageshadow="2"
     inkscape:zoom="0.47"
     inkscape:cx="996.78538"
     inkscape:cy="781.03761"
     inkscape:document-units="px"
     inkscape:current-layer="layer1"
     showgrid="false"
     inkscape:window-width="1920"
     inkscape:window-height="1017"
     inkscape:window-x="-8"
     inkscape:window-y="-8"
     inkscape:window-maximized="1" />
  <metadata
     id="metadata7">
    <rdf:RDF>
      <cc:Work
         rdf:about="">
        <dc:format>image/svg+xml</dc:format>
        <dc:type
           rdf:resource="http://purl.org/dc/dcmitype/StillImage" />
        <dc:title></dc:title>
      </cc:Work>
    </rdf:RDF>
  </metadata>
  <g
     inkscape:label="Camada 1"
     inkscape:groupmode="layer"
     id="layer1"
     transform="translate(0,364.96067)">
    <text
       xml:space="preserve"
       style="font-style:normal;font-variant:normal;font-weight:normal;font-stretch:normal;font-size:401.67990112px;line-height:125%;font-family:'Microsoft Yi Baiti';-inkscape-font-specification:'Microsoft Yi Baiti, Normal';text-align:start;letter-spacing:0px;word-spacing:0px;writing-mode:lr-tb;text-anchor:start;fill:#3d3d3d;fill-opacity:1;stroke:#3d3d3d;stroke-width:2.12476754;stroke-linecap:butt;stroke-linejoin:miter;stroke-miterlimit:4;stroke-dasharray:none;stroke-opacity:1;"
       x="471.50943"
       y="203.41177"
       id="text3336"
       sodipodi:linespacing="125%"
       transform="scale(0.84876286,1.1781854)"><tspan
         sodipodi:role="line"
         id="tspan3338"
         x="471.50943"
         y="203.41177"
         style="letter-spacing:-34.72006607px;stroke-width:2.12476754;stroke:#3d3d3d;stroke-opacity:1;fill:#3d3d3d;fill-opacity:1;">LOST</tspan></text>
    <text
       xml:space="preserve"
       style="font-style:normal;font-variant:normal;font-weight:normal;font-stretch:normal;font-size:394.30258179px;line-height:125%;font-family:'Microsoft Yi Baiti';-inkscape-font-specification:'Microsoft Yi Baiti, Normal';text-align:start;letter-spacing:0px;word-spacing:0px;writing-mode:lr-tb;text-anchor:start;fill:#fdd803;fill-opacity:1;stroke:#fdd803;stroke-width:29.5477581;stroke-linecap:butt;stroke-linejoin:miter;stroke-miterlimit:4;stroke-dasharray:none;stroke-opacity:1"
       x="446.18008"
       y="475.04297"
       id="text3336-4"
       sodipodi:linespacing="125%"
       transform="scale(0.88820153,1.1258706)"><tspan
         sodipodi:role="line"
         id="tspan3338-7"
         x="446.18008"
         y="475.04297"
         style="fill:#fdd803;fill-opacity:1;stroke:#fdd803;stroke-width:29.5477581;stroke-miterlimit:4;stroke-dasharray:none;stroke-opacity:1">FOUND</tspan></text>
    <text
       xml:space="preserve"
       style="font-style:normal;font-weight:normal;font-size:198.66369629px;line-height:125%;font-family:sans-serif;letter-spacing:0px;word-spacing:0px;fill:#3d3d3d;fill-opacity:1;stroke:none;stroke-width:1px;stroke-linecap:butt;stroke-linejoin:miter;stroke-opacity:1;"
       x="939.98523"
       y="243.40073"
       id="text4158"
       sodipodi:linespacing="125%"><tspan
         sodipodi:role="line"
         id="tspan4160"
         x="939.98523"
         y="243.40073"
         style="font-style:normal;font-variant:normal;font-weight:normal;font-stretch:normal;font-size:198.66371155px;line-height:125%;font-family:'Microsoft Yi Baiti';-inkscape-font-specification:'Microsoft Yi Baiti, Normal';text-align:start;writing-mode:lr-tb;text-anchor:start;fill:#3d3d3d;fill-opacity:1;">&amp;</tspan></text>
    <g
       id="g4506"
       transform="matrix(0.54288558,0,0,0.54288558,1063.1491,-14.276188)">
      <circle
         id="circle4508"
         r="256"
         cy="256"
         cx="256"
         style="fill:#f1c09f" />
      <g
         id="g4510">
        <path
           id="path4512"
           d="m 502.074,185.457 -133.703,-87.359 0,5.594 c 4.988,3.027 8.605,9.203 7.277,15.18 -1.41,6.34 -3.977,12.035 -7.277,17.301 l 0,64.555 -71.707,0 c -16.469,14.508 -32.691,29.281 -48.686,44.309 -1.68,2.496 -3.344,4.961 -4.939,7.348 l 0,35.012 -24.852,0 c -3.666,4.813 -7.387,9.586 -11.225,14.258 -27.467,33.434 -57.303,64.441 -91.912,90.5 -3.125,2.352 -6.389,2.789 -9.346,1.992 l 0,17.281 L 259.5,511.91 C 399.262,510.031 512,396.207 512,256 c 0,-24.48 -3.508,-48.125 -9.926,-70.543 z"
           inkscape:connector-curvature="0"
           style="fill:#cc9572" />
      </g>
      <g
         id="g4514">
        <g
           id="g4516">
          <path
             id="path4518"
             d="m 107.961,368.781 -6,5.488 c -9.516,9.52 -9.516,24.941 0,34.465 9.516,9.516 24.945,9.516 34.461,0 l 11.797,-12.469 -6.211,6.563 -34.047,-34.047 z"
             inkscape:connector-curvature="0"
             style="fill:#58301e" />
          <polygon
             id="polygon4520"
             points="233.297,306.34 245.234,293.719 218.914,267.398 206.078,279.129 206.078,279.129 "
             style="fill:#3b2314" />
          <polygon
             id="polygon4522"
             points="170.516,372.703 138.602,340.789 129.867,348.766 107.961,368.781 107.961,368.781 142.008,402.828 148.219,396.266 170.516,372.703 "
             style="fill:#379749" />
          <path
             id="path4524"
             d="m 396.102,270.281 c 41.789,-41.789 41.781,-109.539 0,-151.328 -41.789,-41.789 -109.547,-41.789 -151.328,0 -35.633,35.633 -40.859,90.141 -15.719,131.336 -3.758,-2.234 -8.68,-1.766 -11.914,1.469 -3.828,3.828 -3.828,10.039 0,13.867 l 1.773,1.773 26.32,26.32 -11.938,12.621 -27.219,-27.211 -76.211,69.637 8.734,-7.977 31.914,31.914 74.719,-78.984 2.406,2.406 c 3.836,3.832 10.039,3.832 13.867,0 2.953,-2.953 3.609,-7.313 2,-10.914 41.338,26.024 96.596,21.071 132.596,-14.929 z m -133.11,-18.226 c -31.727,-31.719 -31.727,-83.156 0,-114.883 31.727,-31.719 83.156,-31.719 114.883,0 31.727,31.727 31.727,83.164 0,114.887 -31.727,31.723 -83.156,31.722 -114.883,-0.004 z"
             inkscape:connector-curvature="0"
             style="fill:#58301e" />
          <path
             id="path4526"
             d="m 377.875,137.172 c -31.727,-31.719 -83.156,-31.719 -114.883,0 -31.727,31.727 -31.727,83.164 0,114.883 31.727,31.727 83.156,31.727 114.883,0.004 31.727,-31.723 31.727,-83.161 0,-114.887 z M 268.938,246.113 c -28.438,-28.441 -28.438,-74.551 0,-102.996 28.445,-28.441 74.555,-28.441 103,0 28.438,28.441 28.438,74.555 0,102.996 -28.446,28.442 -74.555,28.442 -103,0 z"
             inkscape:connector-curvature="0"
             style="fill:#cecfcf" />
          <path
             id="path4528"
             d="m 371.938,143.117 c -28.445,-28.441 -74.555,-28.441 -103,0 -28.438,28.445 -28.438,74.555 0,102.996 28.445,28.441 74.555,28.441 103,0 28.437,-28.441 28.437,-74.554 0,-102.996 z"
             inkscape:connector-curvature="0"
             style="fill:#fffff5" />
          <path
             id="path4530"
             d="m 371.938,143.117 c -0.203,-0.195 -0.406,-0.367 -0.609,-0.547 L 268.391,245.508 c 0.18,0.203 0.352,0.41 0.547,0.605 28.445,28.441 74.555,28.441 103,0 28.437,-28.441 28.437,-74.554 0,-102.996 z"
             inkscape:connector-curvature="0"
             style="fill:#eaeae2" />
        </g>
        <g
           id="g4532">
          <polygon
             id="polygon4534"
             points="142.008,402.828 148.219,396.266 142.008,402.828 "
             style="fill:#d77e44" />
          <path
             id="path4536"
             d="m 142.008,402.828 -15.555,-15.555 -22.898,22.902 c 9.578,8.035 23.867,7.559 32.867,-1.441 l 5.586,-5.906 z"
             inkscape:connector-curvature="0"
             style="fill:#3b2314" />
          <polygon
             id="polygon4538"
             points="245.234,293.719 232.625,281.109 220.344,293.391 233.297,306.34 "
             style="fill:#240d14" />
          <polygon
             id="polygon4540"
             points="155.773,357.961 126.453,387.273 142.008,402.828 148.219,396.266 170.516,372.703 "
             style="fill:#23752f" />
          <polygon
             id="polygon4542"
             points="233.297,306.34 220.344,293.391 155.773,357.961 170.516,372.703 245.234,293.719 "
             style="fill:#3b2314" />
          <path
             id="path4544"
             d="m 396.102,270.281 c 41.789,-41.789 41.781,-109.539 0,-151.328 -0.219,-0.223 -0.461,-0.43 -0.68,-0.645 l -18.219,18.223 c 0.219,0.215 0.453,0.422 0.672,0.641 31.727,31.727 31.727,83.164 0,114.887 -31.727,31.723 -83.156,31.723 -114.883,-0.004 -0.219,-0.219 -0.422,-0.453 -0.641,-0.672 l -29.727,29.727 15.016,15.016 c 3.836,3.832 10.039,3.832 13.867,0 2.953,-2.953 3.609,-7.313 2,-10.914 41.337,26.022 96.595,21.069 132.595,-14.931 z"
             inkscape:connector-curvature="0"
             style="fill:#3b2314" />
          <path
             id="path4546"
             d="m 377.875,137.172 c -0.219,-0.219 -0.453,-0.426 -0.672,-0.641 l -5.945,5.945 c 0.219,0.211 0.453,0.422 0.68,0.641 28.438,28.441 28.438,74.555 0,102.996 -28.445,28.441 -74.555,28.441 -103,0 -0.219,-0.223 -0.43,-0.449 -0.641,-0.676 l -5.945,5.945 c 0.219,0.219 0.422,0.453 0.641,0.672 31.727,31.727 83.156,31.727 114.883,0.004 31.727,-31.723 31.726,-83.16 -10e-4,-114.886 z"
             inkscape:connector-curvature="0"
             style="fill:#b7bcbc" />
        </g>
      </g>
    </g>
    <path
       style="opacity:1;fill:#c5a800;fill-opacity:1;stroke:#58301e;stroke-width:0.53191489;stroke-miterlimit:4;stroke-dasharray:none;stroke-opacity:1"
       d="m 1164.6779,237.70139 c -38.0872,-24.95138 -38.4586,-25.22941 -34.7517,-26.02055 2.0608,-0.43982 4.5739,-1.39727 5.5846,-2.12766 1.0107,-0.73038 15.1531,-15.36636 31.4276,-32.52438 21.0965,-22.24181 29.9182,-30.86826 30.7332,-30.0532 1.5339,1.53387 6.3656,1.45283 7.9518,-0.13338 0.7021,-0.70213 1.2766,-2.14803 1.2766,-3.21311 0,-1.85251 0.1744,-1.84752 4.0213,0.11504 7.9153,4.03809 16.3297,5.85752 26.8297,5.80138 15.6892,-0.0839 27.7282,-4.90505 39.253,-15.71926 7.4868,-7.02515 12.1792,-14.44482 15.6338,-24.7204 2.5328,-7.53353 2.7519,-9.44316 2.2981,-20.0296 -0.5833,-13.6062 -2.7032,-20.2592 -9.8524,-30.92059 -2.5247,-3.76495 -4.3407,-6.84537 -4.0356,-6.84537 0.3051,0 12.6543,7.91141 27.4427,17.58092 l 26.888,17.58092 1.7002,6.76859 c 4.4764,17.82045 4.7079,39.33013 0.6382,59.30035 -9.8208,48.19169 -45.1075,88.07743 -91.4984,103.42389 -12.4107,4.10554 -28.126,7.0707 -37.1125,7.00237 -5.9232,-0.045 -5.9706,-0.0719 -44.4282,-25.26596 z"
       id="path4162"
       inkscape:connector-curvature="0" />
    <path
       style="opacity:1;fill:#c5a800;fill-opacity:1;stroke:#58301e;stroke-width:0.01662234;stroke-miterlimit:4;stroke-dasharray:none;stroke-opacity:1"
       d="m 1207.5242,263.18631 c -1.9415,-0.11567 -3.3595,-0.53399 -5.6852,-1.67719 -3.5727,-1.75617 -8.5444,-4.82619 -21.7628,-13.43845 -6.1299,-3.99385 -24.5168,-16.03707 -30.0562,-19.68658 l -1.8243,-1.20184 0.458,0 0.4579,0 1.4993,0.98693 c 5.8021,3.81938 23.4412,15.37318 29.2419,19.15381 13.6344,8.88614 18.6842,12.00689 22.274,13.76511 2.0564,1.00721 3.4111,1.42693 5.0698,1.57073 0.641,0.0556 3.5127,0.056 4.5379,7.6e-4 1.3722,-0.074 2.7437,-0.17933 3.9803,-0.30565 0.3515,-0.0359 0.6694,-0.0653 0.7064,-0.0653 0.062,0 0.067,0.0212 0.067,0.24933 0,0.18004 -0.012,0.24934 -0.042,0.24934 -0.023,0 -0.1617,0.0147 -0.3075,0.0326 -0.7466,0.0918 -2.5267,0.23685 -3.9095,0.31865 -0.9791,0.0579 -4.0168,0.0888 -4.7048,0.0478 l 0,-2e-5 z"
       id="path4164"
       inkscape:connector-curvature="0" />
    <path
       style="opacity:1;fill:#c5a800;fill-opacity:1;stroke:#58301e;stroke-width:0.01662234;stroke-miterlimit:4;stroke-dasharray:none;stroke-opacity:1"
       d="m 1216.4827,262.53157 0,-0.24939 0.1,-0.0147 c 0.055,-0.008 0.6158,-0.0768 1.2466,-0.15272 6.9304,-0.83412 15.3684,-2.58053 22.9887,-4.75794 5.5091,-1.57414 10.766,-3.4398 15.9575,-5.6632 0.9482,-0.40609 2.8469,-1.2482 3.0847,-1.3681 l 0.1593,-0.0803 -0.01,0.28925 -0.01,0.28924 -0.7314,0.33012 c -5.2756,2.38116 -10.9572,4.50031 -16.5891,6.18745 -7.6515,2.29217 -16.2638,4.15729 -23.8032,5.15495 -0.6325,0.0837 -2.2978,0.28451 -2.3604,0.28462 -0.019,3e-5 -0.033,-0.10519 -0.033,-0.24932 z"
       id="path4166"
       inkscape:connector-curvature="0" />
    <path
       style="opacity:1;fill:#c5a800;fill-opacity:1;stroke:#58301e;stroke-width:0.06648936;stroke-miterlimit:4;stroke-dasharray:none;stroke-opacity:1"
       d="m 1260.0991,250.46221 c 0.024,-0.10647 1.543,-0.93698 3.3763,-1.84558 5.5147,-2.73302 9.7118,-5.14916 14.8183,-8.53044 23.0728,-15.27765 41.1441,-37.2871 51.7283,-63.00088 0.2453,-0.59599 0.503,-1.03058 0.6112,-1.03058 0.1029,0 0.1871,0.0523 0.1871,0.1163 0,0.064 -0.3209,0.88677 -0.7132,1.82846 -5.955,14.29729 -14.3404,27.57446 -24.933,39.47811 -1.9838,2.22942 -8.3611,8.60671 -10.5905,10.59058 -9.7499,8.67601 -20.0482,15.62621 -31.4155,21.2019 -1.5538,0.76214 -2.8897,1.38571 -2.9686,1.38571 -0.079,0 -0.1241,-0.0871 -0.1004,-0.19358 z"
       id="path4168"
       inkscape:connector-curvature="0" />
    <path
       style="opacity:1;fill:#c5a800;fill-opacity:1;stroke:#58301e;stroke-width:0.13297872;stroke-miterlimit:4;stroke-dasharray:none;stroke-opacity:1"
       d=""
       id="path4170"
       inkscape:connector-curvature="0"
       transform="translate(0,-364.96079)" />
    <path
       style="opacity:1;fill:#c5a800;fill-opacity:1;stroke:#58301e;stroke-width:0.13297872;stroke-miterlimit:4;stroke-dasharray:none;stroke-opacity:1"
       d=""
       id="path4172"
       inkscape:connector-curvature="0"
       transform="translate(0,-364.96079)" />
    <path
       style="opacity:1;fill:#c5a800;fill-opacity:1;stroke:#58301e;stroke-width:0.13297872;stroke-miterlimit:4;stroke-dasharray:none;stroke-opacity:1"
       d=""
       id="path4174"
       inkscape:connector-curvature="0"
       transform="translate(0,-364.96079)" />
    <path
       style="opacity:1;fill:#c5a800;fill-opacity:1;stroke:#58301e;stroke-width:0.13297872;stroke-miterlimit:4;stroke-dasharray:none;stroke-opacity:1"
       d="m 1339.8918,141.16243 c 0,-0.36569 0.06,-0.51529 0.1342,-0.33244 0.074,0.18284 0.074,0.48204 0,0.66489 -0.074,0.18285 -0.1342,0.0332 -0.1342,-0.33245 z"
       id="path4176"
       inkscape:connector-curvature="0" />
    <path
       style="opacity:1;fill:#c5a800;fill-opacity:1;stroke:#58301e;stroke-width:0.13297872;stroke-miterlimit:4;stroke-dasharray:none;stroke-opacity:1"
       d=""
       id="path4178"
       inkscape:connector-curvature="0"
       transform="translate(0,-364.96079)" />
    <path
       style="opacity:1;fill:#c5a800;fill-opacity:1;stroke:#58301e;stroke-width:0.13297872;stroke-miterlimit:4;stroke-dasharray:none;stroke-opacity:1"
       d=""
       id="path4180"
       inkscape:connector-curvature="0"
       transform="translate(0,-364.96079)" />
    <path
       style="opacity:1;fill:#c5a800;fill-opacity:1;stroke:#58301e;stroke-width:0.04701508;stroke-miterlimit:4;stroke-dasharray:none;stroke-opacity:1"
       d="m 1330.3969,176.2147 c -8e-4,-0.0557 0.109,-0.37308 0.244,-0.70523 1.0214,-2.51234 2.7531,-7.47761 3.7031,-10.61811 3.274,-10.82204 5.0789,-21.20836 5.85,-33.6628 0.1595,-2.57751 0.159,-12.57444 -8e-4,-15.09184 -0.3916,-6.16764 -0.9473,-10.93123 -1.857,-15.91823 -0.3905,-2.14116 -1.3183,-6.46041 -1.4247,-6.63271 -0.026,-0.0427 0.07,-0.0639 0.2144,-0.047 0.3072,0.036 0.2543,-0.12096 0.8354,2.47935 2.6066,11.66431 3.4663,25.27969 2.4459,38.73657 -1.0081,13.29378 -3.8365,26.27637 -8.348,38.31729 -1.1818,3.15415 -1.162,3.10925 -1.3442,3.03932 -0.083,-0.0318 -0.1879,0.001 -0.2336,0.0735 -0.046,0.0722 -0.084,0.0856 -0.084,0.0299 z"
       id="path4182"
       inkscape:connector-curvature="0" />
    <path
       style="opacity:1;fill:#c5a800;fill-opacity:1;stroke:#58301e;stroke-width:0.04701508;stroke-miterlimit:4;stroke-dasharray:none;stroke-opacity:1"
       d="m 1301.1253,221.89714 c 4.0364,-4.19303 6.0644,-6.48012 9.1118,-10.27628 14.5927,-18.17754 24.3831,-39.69268 28.4273,-62.47047 0.3353,-1.88851 1.134,-7.14023 1.134,-7.45621 0,-0.064 0.056,-0.0949 0.1243,-0.0687 0.1452,0.0557 0.168,-0.1775 -0.3116,3.19515 -1.7384,12.2268 -5.2609,24.4839 -10.3605,36.05152 -1.1891,2.69723 -4.0784,8.51653 -5.441,10.95888 -5.0059,8.9722 -10.5855,16.90649 -17.1923,24.44784 -2.4254,2.76844 -7.2029,7.76058 -7.4251,7.75861 -0.069,-6.2e-4 0.8004,-0.96376 1.9331,-2.14031 z"
       id="path4184"
       inkscape:connector-curvature="0" />
    <path
       style="opacity:1;fill:#c5a800;fill-opacity:1;stroke:#58301e;stroke-width:0.06648936;stroke-miterlimit:4;stroke-dasharray:none;stroke-opacity:1"
       d="m 1129.3361,214.02894 c -1.0413,-0.99127 -1.2671,-1.43278 -0.967,-1.89069 0.1811,-0.27644 1.2568,-0.7187 1.7481,-0.7187 0.092,0 0.3351,-0.0692 0.541,-0.15371 0.2059,-0.0846 0.4342,-0.1652 0.5073,-0.17922 0.073,-0.014 0.1779,-0.0421 0.2327,-0.0624 0.055,-0.0203 0.1596,-0.0518 0.2328,-0.0701 0.073,-0.0183 0.1629,-0.0482 0.1994,-0.0665 0.037,-0.0183 0.1264,-0.0482 0.1995,-0.0665 0.073,-0.0183 0.1479,-0.0452 0.1662,-0.0598 0.018,-0.0146 0.1829,-0.0537 0.3657,-0.087 0.1829,-0.0333 0.3525,-0.11893 0.3771,-0.19041 0.024,-0.0715 0.099,-0.0961 0.1662,-0.0548 0.067,0.0413 0.1216,0.008 0.1216,-0.0735 0,-0.0818 0.057,-0.11332 0.1271,-0.0701 0.07,0.0432 0.5323,-0.11782 1.0275,-0.35783 0.7883,-0.38208 1.3229,-0.85871 4.2944,-3.82843 4.0111,-4.00863 12.6995,-13.03201 25.7994,-26.79415 12.2999,-12.92155 18.6889,-19.52156 23.7579,-24.54257 5.4155,-5.36411 7.7259,-7.42642 8.8427,-7.89306 0.4427,-0.18495 0.4987,-0.17855 0.9241,0.10567 0.9522,0.63607 2.9738,0.96932 4.5088,0.74326 0.5486,-0.0808 1.1681,-0.17065 1.3768,-0.19971 0.4373,-0.0609 1.3776,-0.5833 1.7089,-0.94943 0.4135,-0.45693 0.9564,-1.82411 0.9884,-2.48932 0.057,-1.18678 0.1907,-1.6765 0.5152,-1.88916 0.4411,-0.28902 0.9144,-0.13123 3.6554,1.21874 2.9935,1.47433 5.0249,2.32679 7.437,3.12083 2.3057,0.75903 5.7016,1.61742 6.4917,1.64093 0.3104,0.009 0.5647,0.0687 0.5652,0.13203 4e-4,0.0634 0.1504,0.0866 0.3332,0.0517 0.1829,-0.035 0.3325,-0.006 0.3325,0.0654 0,0.0709 0.1459,0.0923 0.3243,0.0476 0.1783,-0.0448 0.3577,-0.0272 0.3986,0.0389 0.041,0.0662 0.269,0.11769 0.5068,0.11449 0.2379,-0.003 1.2108,0.0922 2.162,0.21206 4.5863,0.57778 11.9984,0.55429 16.2226,-0.0514 1.3098,-0.18781 2.0803,-0.27351 2.4203,-0.26924 0.1609,0.002 0.3241,-0.0472 0.3625,-0.10943 0.039,-0.0622 0.221,-0.0842 0.4056,-0.0489 0.1845,0.0353 0.3356,0.006 0.3356,-0.0659 0,-0.0715 0.1496,-0.10144 0.3324,-0.0665 0.1829,0.0349 0.3325,0.002 0.3325,-0.0725 0,-0.0748 0.1047,-0.10896 0.2327,-0.0759 0.6619,0.17111 6.8897,-1.69908 9.7959,-2.94168 2.8746,-1.22915 7.8917,-3.97074 8.7903,-4.80355 0.1725,-0.15985 0.3458,-0.25844 0.3852,-0.21908 0.039,0.0394 0.1091,-0.0264 0.1551,-0.14617 0.046,-0.11975 0.1341,-0.18648 0.1959,-0.14829 0.062,0.0382 0.1782,-0.0536 0.2587,-0.20395 0.081,-0.15038 0.1969,-0.24216 0.2587,-0.20396 0.062,0.0382 0.1481,-0.0238 0.1919,-0.13768 0.044,-0.11392 0.1397,-0.16989 0.2133,-0.12437 0.074,0.0455 0.134,0.0309 0.134,-0.0324 0,-0.0634 0.4032,-0.41096 0.896,-0.77248 3.8766,-2.8438 8.4943,-7.31375 11.6148,-11.24314 1.3528,-1.70353 3.5892,-5.01757 4.63,-6.86102 1.7861,-3.16355 3.6487,-7.45259 4.9294,-11.35075 0.371,-1.12939 0.7352,-2.1606 0.8093,-2.29157 0.074,-0.13097 0.099,-0.29553 0.056,-0.36569 -0.043,-0.0702 -0.01,-0.12757 0.077,-0.12757 0.09,0 0.1274,-0.11083 0.089,-0.25958 -0.037,-0.14277 -0.016,-0.27741 0.047,-0.2992 0.1697,-0.0585 0.8781,-3.01834 1.1076,-4.62739 0.3499,-2.45369 0.252,-10.72863 -0.1919,-16.2234 -0.1839,-2.27541 -0.6142,-5.51284 -0.9458,-7.11437 -0.1514,-0.73138 -0.291,-1.44946 -0.3101,-1.59574 -0.019,-0.14628 -0.046,-0.26596 -0.06,-0.26596 -0.014,0 -0.046,-0.20746 -0.07,-0.46103 -0.025,-0.25356 -0.111,-0.48307 -0.1918,-0.51002 -0.081,-0.0269 -0.1126,-0.10472 -0.071,-0.17281 0.1175,-0.19013 -0.5554,-2.37268 -1.3693,-4.44124 -0.8414,-2.13869 -2.6293,-5.78458 -2.8366,-5.78458 -0.077,0 -0.103,-0.0598 -0.058,-0.13298 0.045,-0.0731 0.015,-0.13298 -0.066,-0.13298 -0.082,0 -0.1117,-0.0598 -0.067,-0.13298 0.045,-0.0731 0.015,-0.13297 -0.066,-0.13297 -0.082,0 -0.1131,-0.0577 -0.07,-0.12813 0.044,-0.0705 -0.038,-0.24501 -0.1806,-0.38786 -0.1428,-0.14285 -0.2248,-0.29463 -0.1821,-0.33729 0.043,-0.0427 0,-0.0776 -0.085,-0.0776 -0.09,0 -0.126,-0.0598 -0.081,-0.13297 0.045,-0.0731 0.019,-0.13298 -0.059,-0.13298 -0.077,0 -0.1409,-0.0898 -0.1409,-0.19947 0,-0.10971 -0.063,-0.19947 -0.1408,-0.19947 -0.078,0 -0.107,-0.0547 -0.066,-0.12162 0.041,-0.0669 0.026,-0.14169 -0.034,-0.16622 -0.094,-0.0385 -2.0429,-3.01311 -2.4687,-3.76801 -0.082,-0.14628 -0.2056,-0.30605 -0.2736,-0.35506 -0.068,-0.049 -0.1366,-0.17707 -0.1523,-0.28459 -0.016,-0.10752 -0.3254,-0.63591 -0.688,-1.1742 -0.8869,-1.3167 -2.4614,-3.94335 -2.6798,-4.47066 -0.097,-0.23438 -0.1395,-0.52254 -0.094,-0.64037 0.071,-0.18428 0.189,-0.1541 0.8463,0.21596 1.9297,1.08649 13.749,8.68945 28.9555,18.62613 4.9734,3.24987 12.6068,8.23748 16.9631,11.08358 l 7.9206,5.17473 0.88,3.53011 c 0.484,1.94157 0.8569,3.55328 0.8285,3.5816 -0.2378,0.23781 -0.4953,-0.48361 -1.2334,-3.45554 l -0.838,-3.37424 -10.2657,-6.71286 c -31.1832,-20.39106 -43.2457,-28.17057 -43.416,-28.00029 -0.096,0.0962 1.2293,2.28028 3.4335,5.6573 3.3114,5.07322 4.8385,7.7494 6.1792,10.82832 2.9288,6.72592 4.0908,14.20345 4.1139,26.47221 0.012,6.20379 -0.2155,7.63492 -2.1325,13.43085 -2.6189,7.91812 -5.6418,13.76337 -9.8686,19.08245 -4.5078,5.67281 -10.749,11.16963 -16.831,14.82353 -6.6419,3.99041 -13.3086,6.19179 -21.824,7.20643 -2.8424,0.33868 -11.8457,0.342 -14.7948,0.005 -7.385,-0.8428 -12.4842,-2.32298 -19.1133,-5.54817 -1.3888,-0.67569 -2.7408,-1.25746 -3.0045,-1.29282 l -0.4794,-0.0643 -0.085,0.99922 c -0.2061,2.43806 -1.2037,3.84946 -3.1485,4.45434 -0.5506,0.17124 -1.1917,0.22547 -2.5931,0.21936 -1.5987,-0.007 -1.968,-0.05 -2.6142,-0.30422 -0.4139,-0.16286 -0.8252,-0.3836 -0.9139,-0.49055 -0.2766,-0.33329 -0.6033,-0.22008 -1.6798,0.58212 -3.2839,2.44709 -10.607,9.82724 -31.1617,31.40429 -20.2414,21.24808 -28.8036,30.03617 -29.8873,30.67589 -1.062,0.62681 -3.0757,1.3275 -5.8508,2.03585 -0.9297,0.2373 -0.7597,0.67457 0.776,1.99637 0.8621,0.74195 0.9004,0.79721 0.5533,0.79721 -0.2765,0 -0.6033,-0.21927 -1.2638,-0.84806 z"
       id="path4188"
       inkscape:connector-curvature="0" />
    <path
       style="opacity:1;fill:#c5a800;fill-opacity:1;stroke:#58301e;stroke-width:0.03324468;stroke-miterlimit:4;stroke-dasharray:none;stroke-opacity:1"
       d="m 1143.8603,224.30119 c -6.4377,-4.27068 -10.0969,-6.7819 -12.3337,-8.46442 -1.3307,-1.00091 -1.5216,-1.15691 -1.3298,-1.08646 0.2659,0.0977 0.5139,0.11286 0.5624,0.0345 0.033,-0.0536 0.3917,0.17734 1.1063,0.71249 2.253,1.68713 6.3801,4.51077 12.9246,8.84261 2.285,1.51243 4.1675,2.76283 4.1833,2.77867 0.016,0.0158 -0.1632,0.0285 -0.3979,0.0282 l -0.4266,-6.1e-4 -4.2886,-2.84495 z"
       id="path4190"
       inkscape:connector-curvature="0" />
    <path
       style="opacity:1;fill:#c5a800;fill-opacity:1;stroke:#58301e;stroke-width:0.03324468;stroke-miterlimit:4;stroke-dasharray:none;stroke-opacity:1"
       d="m 1129.3481,214.83022 c -3.4654,-2.26932 -6.2879,-4.13896 -6.2721,-4.15476 0.016,-0.0158 0.2619,0.0496 0.5469,0.14528 1.5204,0.51067 2.4954,0.66084 4.3132,0.66433 l 1.4628,0.003 -0.4209,0.14047 c -0.889,0.29665 -1.0553,0.83585 -0.5034,1.63219 0.521,0.7518 2.7267,2.49857 6.1936,4.90484 1.0123,0.70264 1.1556,0.81353 1.0306,0.79734 -0.027,-0.004 -2.8853,-1.86317 -6.3507,-4.13249 z"
       id="path4192"
       inkscape:connector-curvature="0" />
    <path
       style="opacity:1;fill:#c5a800;fill-opacity:1;stroke:#58301e;stroke-width:0.01662234;stroke-miterlimit:4;stroke-dasharray:none;stroke-opacity:1"
       d="m 1173.1532,169.66634 c 0.025,-0.0315 3.8312,-4.0595 8.458,-8.95113 4.6269,-4.89162 9.7487,-10.3076 11.3819,-12.03549 1.6331,-1.72789 3.0425,-3.21631 3.1319,-3.3076 l 0.1626,-0.16598 0.7341,0.73411 0.7341,0.73412 -0.1774,-0.0146 c -0.3122,-0.0257 -0.6831,0.14697 -1.3706,0.63813 -1.6213,1.15843 -4.1534,3.51517 -9.1973,8.56038 -3.7045,3.70552 -6.5989,6.67019 -11.63,11.91248 l -1.8742,1.95286 -0.1994,0 c -0.1841,0 -0.1958,-0.004 -0.1537,-0.0573 z"
       id="path4194"
       inkscape:connector-curvature="0" />
    <path
       style="opacity:1;fill:#c5a800;fill-opacity:1;stroke:#58301e;stroke-width:0.01662234;stroke-miterlimit:4;stroke-dasharray:none;stroke-opacity:1"
       d="m 1224.1463,148.05747 c -0.7919,-0.14096 -2.7618,-0.62776 -4.139,-1.02284 -3.2087,-0.92051 -5.7925,-1.95757 -9.5195,-3.82092 -1.8221,-0.91095 -2.349,-1.13654 -2.8365,-1.21442 -0.3415,-0.0546 -0.5364,-0.002 -0.7306,0.19781 -0.089,0.0913 -0.1646,0.2051 -0.1784,0.26775 -0.035,0.15965 -0.07,0.0642 -0.093,-0.25373 -0.027,-0.36983 -0.104,-0.72704 -0.2539,-1.17767 -0.07,-0.21028 -0.1229,-0.3869 -0.1178,-0.3925 0.01,-0.006 0.2242,0.12256 0.4868,0.28481 5.0766,3.13699 11.0562,5.60325 16.9002,6.97052 0.3657,0.0856 0.6799,0.16101 0.6982,0.16767 0.045,0.0166 -0.1135,0.0118 -0.2161,-0.006 z"
       id="path4196"
       inkscape:connector-curvature="0" />
    <path
       style="opacity:1;fill:#c5a800;fill-opacity:1;stroke:#58301e;stroke-width:0.01662234;stroke-miterlimit:4;stroke-dasharray:none;stroke-opacity:1"
       d="m 1204.0143,147.35195 c 1.163,-0.6948 1.9755,-1.68866 2.3934,-2.92758 0.1255,-0.37183 0.1512,-0.35726 0.068,0.0385 -0.1318,0.6268 -0.4982,1.4859 -0.8072,1.89254 -0.3119,0.41062 -0.7591,0.72792 -1.352,0.95931 -0.4888,0.19078 -0.5774,0.20171 -0.3022,0.0373 z"
       id="path4198"
       inkscape:connector-curvature="0" />
    <path
       style="opacity:1;fill:#fdd803;fill-opacity:1;stroke:#58301e;stroke-width:0.03324468;stroke-miterlimit:4;stroke-dasharray:none;stroke-opacity:1"
       d="m 1282.4202,54.98135 c -2.8475,-3.53876 -6.3146,-6.93477 -9.883,-9.68032 -0.3752,-0.28867 -0.6711,-0.53587 -0.6577,-0.54932 0.014,-0.0135 2.5346,1.61558 5.6024,3.62009 3.0678,2.00451 5.9155,3.86425 6.3282,4.13276 0.4127,0.26851 0.7356,0.50293 0.7176,0.52093 -0.018,0.018 -0.2659,-0.11636 -0.5508,-0.29859 -0.285,-0.18223 -0.9188,-0.57644 -1.4085,-0.87601 -1.4215,-0.86964 -1.5751,-0.92779 -1.7587,-0.66571 -0.1736,0.24786 0.026,0.72465 0.9706,2.31648 0.2947,0.49672 0.7587,1.25644 1.0312,1.68825 0.2725,0.43182 0.4846,0.79599 0.4713,0.80928 -0.013,0.0133 -0.4015,-0.44475 -0.8626,-1.01784 z"
       id="path4200"
       inkscape:connector-curvature="0" />
    <path
       style="opacity:1;fill:#fdd803;fill-opacity:1;stroke:#58301e;stroke-width:0.26595744;stroke-miterlimit:4;stroke-dasharray:none;stroke-opacity:1"
       d="m 1194.0123,263.19923 c -56.2996,-3.04241 -105.6672,-40.86598 -123.5524,-94.66113 -4.9619,-14.92423 -6.9206,-27.34432 -6.9206,-43.88298 0,-12.16343 0.8071,-19.8903 3.1918,-30.55724 8.8896,-39.76452 35.7581,-74.37243 72.1114,-92.88295 20.2213,-10.29632 40.3872,-15.12364 63.1786,-15.12364 37.7351,0 71.3353,13.86939 97.8949,40.40878 11.8624,11.85329 19.2882,22.13755 26.5416,36.75846 3.9529,7.96785 8.75,20.21441 8.4302,21.52139 -0.085,0.34605 -9.2497,-5.30104 -20.3667,-12.54908 -11.1171,-7.24805 -23.0851,-15.04559 -26.5958,-17.32787 -3.5106,-2.28229 -10.0931,-6.57817 -14.6276,-9.54642 -4.5346,-2.96824 -9.9291,-6.13379 -11.9877,-7.03455 -16.4969,-7.21816 -34.0544,-6.89382 -49.9804,0.92329 -28.9881,14.2285 -40.7874,49.44428 -26.2557,78.36195 l 1.5369,3.05852 -1.8285,0 c -4.1997,0 -6.7824,4.61392 -4.6273,8.26652 0.6167,1.04537 1.1214,1.98518 1.1214,2.08846 0,0.18089 -57.7313,53.05393 -61.8693,56.66281 -3.1111,2.71335 -4.8091,6.4681 -4.8125,10.64178 -0,5.22131 2.3057,9.09928 7.1073,11.93236 1.6091,0.94938 15.2527,9.82324 30.3192,19.71968 15.0665,9.89644 32.4202,21.21422 38.5638,25.15063 14.4793,9.27737 13.5912,8.64272 11.9535,8.54188 -0.7234,-0.0445 -4.5601,-0.25633 -8.5261,-0.47065 z"
       id="path4202"
       inkscape:connector-curvature="0" />
  </g>
</svg>
