<?xml version="1.0" encoding="iso-8859-1"?>
<!-- Generator: Adobe Illustrator 19.0.0, SVG Export Plug-In . SVG Version: 6.00 Build 0)  -->
<svg version="1.1" id="Layer_1" xmlns="http://www.w3.org/2000/svg" xmlns:xlink="http://www.w3.org/1999/xlink" x="0px" y="0px"
	 viewBox="0 0 512 512" style="enable-background:new 0 0 512 512;" xml:space="preserve">
<path style="fill:#FF6469;" d="M256,0c-52.636,0-112.814,81.754-112.814,182.237c0,129.831,105.673,318.898,109.433,326.89
	c0.861,1.831,2.09,2.872,3.38,2.872c2.462,0,4.81-1.042,6.453-2.872c7.178-7.992,175.784-197.059,175.784-326.89
	C438.237,81.754,356.488,0,256,0z M256,277.695c-52.72,0-95.458-42.737-95.458-95.458S203.28,86.78,256,86.78
	s95.458,42.737,95.458,95.458S308.72,277.695,256,277.695z"/>
<path style="fill:#D2555F;" d="M252.62,509.128c-3.761-7.992-109.433-197.059-109.433-326.89C143.186,81.754,203.364,0,256,0
	C155.512,0,73.763,81.754,73.763,182.237c0,129.831,168.606,318.898,175.784,326.89c1.644,1.831,3.992,2.872,6.453,2.872
	C254.71,512,253.481,510.958,252.62,509.128z"/>
<g>
</g>
<g>
</g>
<g>
</g>
<g>
</g>
<g>
</g>
<g>
</g>
<g>
</g>
<g>
</g>
<g>
</g>
<g>
</g>
<g>
</g>
<g>
</g>
<g>
</g>
<g>
</g>
<g>
</g>
</svg>
