<?xml version="1.0" encoding="UTF-8" standalone="no"?>
<!-- Created with Inkscape (http://www.inkscape.org/) -->

<svg
   xmlns:dc="http://purl.org/dc/elements/1.1/"
   xmlns:cc="http://creativecommons.org/ns#"
   xmlns:rdf="http://www.w3.org/1999/02/22-rdf-syntax-ns#"
   xmlns:svg="http://www.w3.org/2000/svg"
   xmlns="http://www.w3.org/2000/svg"
   xmlns:sodipodi="http://sodipodi.sourceforge.net/DTD/sodipodi-0.dtd"
   xmlns:inkscape="http://www.inkscape.org/namespaces/inkscape"
   width="600mm"
   height="400mm"
   viewBox="0 0 2125.9843 1417.3228"
   id="svg2"
   version="1.1"
   inkscape:version="0.91 r13725"
   sodipodi:docname="2.svg"
   inkscape:export-filename="C:\Users\Diogo Cordeiro\Desktop\Logo\Logo 1.png"
   inkscape:export-xdpi="90"
   inkscape:export-ydpi="90">
  <defs
     id="defs4" />
  <sodipodi:namedview
     id="base"
     pagecolor="#ffffff"
     bordercolor="#666666"
     borderopacity="1.0"
     inkscape:pageopacity="0.0"
     inkscape:pageshadow="2"
     inkscape:zoom="1.88"
     inkscape:cx="1030.0491"
     inkscape:cy="842.56205"
     inkscape:document-units="px"
     inkscape:current-layer="layer1"
     showgrid="false"
     inkscape:window-width="1920"
     inkscape:window-height="1017"
     inkscape:window-x="-8"
     inkscape:window-y="-8"
     inkscape:window-maximized="1" />
  <metadata
     id="metadata7">
    <rdf:RDF>
      <cc:Work
         rdf:about="">
        <dc:format>image/svg+xml</dc:format>
        <dc:type
           rdf:resource="http://purl.org/dc/dcmitype/StillImage" />
        <dc:title />
      </cc:Work>
    </rdf:RDF>
  </metadata>
  <g
     inkscape:label="Camada 1"
     inkscape:groupmode="layer"
     id="layer1"
     transform="translate(0,364.96067)">
    <text
       xml:space="preserve"
       style="font-style:normal;font-variant:normal;font-weight:normal;font-stretch:normal;font-size:401.67990112px;line-height:125%;font-family:'Microsoft Yi Baiti';-inkscape-font-specification:'Microsoft Yi Baiti, Normal';text-align:start;letter-spacing:0px;word-spacing:0px;writing-mode:lr-tb;text-anchor:start;fill:#3d3d3d;fill-opacity:1;stroke:#3d3d3d;stroke-width:2.12476754;stroke-linecap:butt;stroke-linejoin:miter;stroke-miterlimit:4;stroke-dasharray:none;stroke-opacity:1;"
       x="471.50943"
       y="203.41177"
       id="text3336"
       sodipodi:linespacing="125%"
       transform="scale(0.84876286,1.1781854)"><tspan
         sodipodi:role="line"
         id="tspan3338"
         x="471.50943"
         y="203.41177"
         style="letter-spacing:-34.72006607px;stroke-width:2.12476754;stroke:#3d3d3d;stroke-opacity:1;fill:#3d3d3d;fill-opacity:1;">LOST</tspan></text>
    <text
       xml:space="preserve"
       style="font-style:normal;font-variant:normal;font-weight:normal;font-stretch:normal;font-size:394.30258179px;line-height:125%;font-family:'Microsoft Yi Baiti';-inkscape-font-specification:'Microsoft Yi Baiti, Normal';text-align:start;letter-spacing:0px;word-spacing:0px;writing-mode:lr-tb;text-anchor:start;fill:#fdd803;fill-opacity:1;stroke:#fdd803;stroke-width:29.5477581;stroke-linecap:butt;stroke-linejoin:miter;stroke-miterlimit:4;stroke-dasharray:none;stroke-opacity:1;"
       x="1176.7983"
       y="204.80292"
       id="text3336-4"
       sodipodi:linespacing="125%"
       transform="scale(0.88820152,1.1258706)"><tspan
         sodipodi:role="line"
         id="tspan3338-7"
         x="1176.7983"
         y="204.80292"
         style="stroke-width:29.5477581;stroke-miterlimit:4;stroke-dasharray:none;fill:#fdd803;fill-opacity:1;stroke:#fdd803;stroke-opacity:1;">FOUND</tspan></text>
    <text
       xml:space="preserve"
       style="font-style:normal;font-weight:normal;font-size:198.66369629px;line-height:125%;font-family:sans-serif;letter-spacing:0px;word-spacing:0px;fill:#3d3d3d;fill-opacity:1;stroke:none;stroke-width:1px;stroke-linecap:butt;stroke-linejoin:miter;stroke-opacity:1;"
       x="939.98523"
       y="243.40073"
       id="text4158"
       sodipodi:linespacing="125%"><tspan
         sodipodi:role="line"
         id="tspan4160"
         x="939.98523"
         y="243.40073"
         style="font-style:normal;font-variant:normal;font-weight:normal;font-stretch:normal;font-size:198.66371155px;line-height:125%;font-family:'Microsoft Yi Baiti';-inkscape-font-specification:'Microsoft Yi Baiti, Normal';text-align:start;writing-mode:lr-tb;text-anchor:start;fill:#3d3d3d;fill-opacity:1;">&amp;</tspan></text>
    <g
       id="g4506"
       transform="matrix(0.54288558,0,0,0.54288558,124.8511,-14.276188)">
      <circle
         id="circle4508"
         r="256"
         cy="256"
         cx="256"
         style="fill:#f1c09f" />
      <g
         id="g4510">
        <path
           id="path4512"
           d="m 502.074,185.457 -133.703,-87.359 0,5.594 c 4.988,3.027 8.605,9.203 7.277,15.18 -1.41,6.34 -3.977,12.035 -7.277,17.301 l 0,64.555 -71.707,0 c -16.469,14.508 -32.691,29.281 -48.686,44.309 -1.68,2.496 -3.344,4.961 -4.939,7.348 l 0,35.012 -24.852,0 c -3.666,4.813 -7.387,9.586 -11.225,14.258 -27.467,33.434 -57.303,64.441 -91.912,90.5 -3.125,2.352 -6.389,2.789 -9.346,1.992 l 0,17.281 L 259.5,511.91 C 399.262,510.031 512,396.207 512,256 c 0,-24.48 -3.508,-48.125 -9.926,-70.543 z"
           inkscape:connector-curvature="0"
           style="fill:#cc9572" />
      </g>
      <g
         id="g4514">
        <g
           id="g4516">
          <path
             id="path4518"
             d="m 107.961,368.781 -6,5.488 c -9.516,9.52 -9.516,24.941 0,34.465 9.516,9.516 24.945,9.516 34.461,0 l 11.797,-12.469 -6.211,6.563 -34.047,-34.047 z"
             inkscape:connector-curvature="0"
             style="fill:#58301e" />
          <polygon
             id="polygon4520"
             points="206.078,279.129 233.297,306.34 245.234,293.719 218.914,267.398 206.078,279.129 "
             style="fill:#3b2314" />
          <polygon
             id="polygon4522"
             points="170.516,372.703 170.516,372.703 138.602,340.789 129.867,348.766 107.961,368.781 107.961,368.781 142.008,402.828 148.219,396.266 "
             style="fill:#379749" />
          <path
             id="path4524"
             d="m 396.102,270.281 c 41.789,-41.789 41.781,-109.539 0,-151.328 -41.789,-41.789 -109.547,-41.789 -151.328,0 -35.633,35.633 -40.859,90.141 -15.719,131.336 -3.758,-2.234 -8.68,-1.766 -11.914,1.469 -3.828,3.828 -3.828,10.039 0,13.867 l 1.773,1.773 26.32,26.32 -11.938,12.621 -27.219,-27.211 -76.211,69.637 8.734,-7.977 31.914,31.914 74.719,-78.984 2.406,2.406 c 3.836,3.832 10.039,3.832 13.867,0 2.953,-2.953 3.609,-7.313 2,-10.914 41.338,26.024 96.596,21.071 132.596,-14.929 z m -133.11,-18.226 c -31.727,-31.719 -31.727,-83.156 0,-114.883 31.727,-31.719 83.156,-31.719 114.883,0 31.727,31.727 31.727,83.164 0,114.887 -31.727,31.723 -83.156,31.722 -114.883,-0.004 z"
             inkscape:connector-curvature="0"
             style="fill:#58301e" />
          <path
             id="path4526"
             d="m 377.875,137.172 c -31.727,-31.719 -83.156,-31.719 -114.883,0 -31.727,31.727 -31.727,83.164 0,114.883 31.727,31.727 83.156,31.727 114.883,0.004 31.727,-31.723 31.727,-83.161 0,-114.887 z M 268.938,246.113 c -28.438,-28.441 -28.438,-74.551 0,-102.996 28.445,-28.441 74.555,-28.441 103,0 28.438,28.441 28.438,74.555 0,102.996 -28.446,28.442 -74.555,28.442 -103,0 z"
             inkscape:connector-curvature="0"
             style="fill:#cecfcf" />
          <path
             id="path4528"
             d="m 371.938,143.117 c -28.445,-28.441 -74.555,-28.441 -103,0 -28.438,28.445 -28.438,74.555 0,102.996 28.445,28.441 74.555,28.441 103,0 28.437,-28.441 28.437,-74.554 0,-102.996 z"
             inkscape:connector-curvature="0"
             style="fill:#fffff5" />
          <path
             id="path4530"
             d="m 371.938,143.117 c -0.203,-0.195 -0.406,-0.367 -0.609,-0.547 L 268.391,245.508 c 0.18,0.203 0.352,0.41 0.547,0.605 28.445,28.441 74.555,28.441 103,0 28.437,-28.441 28.437,-74.554 0,-102.996 z"
             inkscape:connector-curvature="0"
             style="fill:#eaeae2" />
        </g>
        <g
           id="g4532">
          <polygon
             id="polygon4534"
             points="142.008,402.828 142.008,402.828 148.219,396.266 "
             style="fill:#d77e44" />
          <path
             id="path4536"
             d="m 142.008,402.828 -15.555,-15.555 -22.898,22.902 c 9.578,8.035 23.867,7.559 32.867,-1.441 l 5.586,-5.906 z"
             inkscape:connector-curvature="0"
             style="fill:#3b2314" />
          <polygon
             id="polygon4538"
             points="233.297,306.34 245.234,293.719 232.625,281.109 220.344,293.391 "
             style="fill:#240d14" />
          <polygon
             id="polygon4540"
             points="170.516,372.703 155.773,357.961 126.453,387.273 142.008,402.828 148.219,396.266 "
             style="fill:#23752f" />
          <polygon
             id="polygon4542"
             points="245.234,293.719 233.297,306.34 220.344,293.391 155.773,357.961 170.516,372.703 "
             style="fill:#3b2314" />
          <path
             id="path4544"
             d="m 396.102,270.281 c 41.789,-41.789 41.781,-109.539 0,-151.328 -0.219,-0.223 -0.461,-0.43 -0.68,-0.645 l -18.219,18.223 c 0.219,0.215 0.453,0.422 0.672,0.641 31.727,31.727 31.727,83.164 0,114.887 -31.727,31.723 -83.156,31.723 -114.883,-0.004 -0.219,-0.219 -0.422,-0.453 -0.641,-0.672 l -29.727,29.727 15.016,15.016 c 3.836,3.832 10.039,3.832 13.867,0 2.953,-2.953 3.609,-7.313 2,-10.914 41.337,26.022 96.595,21.069 132.595,-14.931 z"
             inkscape:connector-curvature="0"
             style="fill:#3b2314" />
          <path
             id="path4546"
             d="m 377.875,137.172 c -0.219,-0.219 -0.453,-0.426 -0.672,-0.641 l -5.945,5.945 c 0.219,0.211 0.453,0.422 0.68,0.641 28.438,28.441 28.438,74.555 0,102.996 -28.445,28.441 -74.555,28.441 -103,0 -0.219,-0.223 -0.43,-0.449 -0.641,-0.676 l -5.945,5.945 c 0.219,0.219 0.422,0.453 0.641,0.672 31.727,31.727 83.156,31.727 114.883,0.004 31.727,-31.723 31.726,-83.16 -10e-4,-114.886 z"
             inkscape:connector-curvature="0"
             style="fill:#b7bcbc" />
        </g>
      </g>
    </g>
    <path
       style="opacity:1;fill:#c5a800;fill-opacity:1;stroke:#58301e;stroke-width:0.53191489;stroke-miterlimit:4;stroke-dasharray:none;stroke-opacity:1"
       d="m 226.37994,602.66218 c -38.08727,-24.95138 -38.45859,-25.22941 -34.75172,-26.02055 2.06079,-0.43982 4.57385,-1.39727 5.58456,-2.12766 1.01072,-0.73038 15.15316,-15.36636 31.42766,-32.52438 21.0965,-22.24181 29.91815,-30.86826 30.73321,-30.0532 1.53387,1.53387 6.36552,1.45283 7.95173,-0.13338 0.70213,-0.70213 1.27659,-2.14803 1.27659,-3.21311 0,-1.85251 0.17445,-1.84752 4.02138,0.11504 7.91531,4.03809 16.32966,5.85752 26.82969,5.80138 15.68915,-0.0839 27.72819,-4.90505 39.253,-15.71926 7.48676,-7.02515 12.17916,-14.44482 15.63381,-24.7204 2.53277,-7.53353 2.75187,-9.44316 2.29804,-20.0296 -0.58328,-13.6062 -2.70317,-20.2592 -9.85241,-30.92059 -2.52468,-3.76495 -4.34069,-6.84537 -4.03558,-6.84537 0.30512,0 12.65435,7.91141 27.44274,17.58092 l 26.888,17.58092 1.70022,6.76859 c 4.47635,17.82045 4.70783,39.33013 0.63816,59.30035 -9.82084,48.19169 -45.1075,88.07743 -91.49845,103.42389 -12.41067,4.10554 -28.12595,7.0707 -37.11244,7.00237 -5.92324,-0.045 -5.97057,-0.0719 -44.42819,-25.26596 z"
       id="path4162"
       inkscape:connector-curvature="0"
       transform="translate(0,-364.96079)" />
    <path
       style="opacity:1;fill:#c5a800;fill-opacity:1;stroke:#58301e;stroke-width:0.01662234;stroke-miterlimit:4;stroke-dasharray:none;stroke-opacity:1"
       d="m 269.22625,628.1471 c -1.94154,-0.11567 -3.35954,-0.53399 -5.68522,-1.67719 -3.57267,-1.75617 -8.54439,-4.82619 -21.76283,-13.43845 -6.12992,-3.99385 -24.51675,-16.03707 -30.05623,-19.68658 l -1.82424,-1.20184 0.45796,0 0.45797,0 1.49925,0.98693 c 5.80212,3.81938 23.44119,15.37318 29.24195,19.15381 13.63433,8.88614 18.68416,12.00689 22.27393,13.76511 2.05641,1.00721 3.41115,1.42693 5.06982,1.57073 0.641,0.0556 3.51273,0.056 4.5379,7.6e-4 1.3722,-0.074 2.74372,-0.17933 3.98029,-0.30565 0.35156,-0.0359 0.66946,-0.0653 0.70645,-0.0653 0.0615,0 0.0673,0.0212 0.0673,0.24933 0,0.18004 -0.0118,0.24934 -0.0424,0.24934 -0.0233,0 -0.16172,0.0147 -0.30751,0.0326 -0.7466,0.0918 -2.52675,0.23685 -3.90954,0.31865 -0.97913,0.0579 -4.01678,0.0888 -4.70477,0.0478 l 0,-2e-5 z"
       id="path4164"
       inkscape:connector-curvature="0"
       transform="translate(0,-364.96079)" />
    <path
       style="opacity:1;fill:#c5a800;fill-opacity:1;stroke:#58301e;stroke-width:0.01662234;stroke-miterlimit:4;stroke-dasharray:none;stroke-opacity:1"
       d="m 278.18469,627.49236 0,-0.24939 0.0997,-0.0147 c 0.0548,-0.008 0.61585,-0.0768 1.24667,-0.15272 6.93037,-0.83412 15.3684,-2.58053 22.9887,-4.75794 5.50901,-1.57414 10.76597,-3.4398 15.95745,-5.6632 0.94817,-0.40609 2.84695,-1.2482 3.08475,-1.3681 l 0.15923,-0.0803 -0.01,0.28925 -0.01,0.28924 -0.73138,0.33012 c -5.27561,2.38116 -10.95724,4.50031 -16.5891,6.18745 -7.65148,2.29217 -16.26377,4.15729 -23.80319,5.15495 -0.63247,0.0837 -2.29783,0.28451 -2.36037,0.28462 -0.0192,3e-5 -0.0333,-0.10519 -0.0333,-0.24932 z"
       id="path4166"
       inkscape:connector-curvature="0"
       transform="translate(0,-364.96079)" />
    <path
       style="opacity:1;fill:#c5a800;fill-opacity:1;stroke:#58301e;stroke-width:0.06648936;stroke-miterlimit:4;stroke-dasharray:none;stroke-opacity:1"
       d="m 321.8011,615.423 c 0.0236,-0.10647 1.54301,-0.93698 3.37636,-1.84558 5.51464,-2.73302 9.71171,-5.14916 14.81823,-8.53044 23.0728,-15.27765 41.14416,-37.2871 51.72828,-63.00088 0.24532,-0.59599 0.50308,-1.03058 0.61126,-1.03058 0.10288,0 0.18706,0.0523 0.18706,0.1163 0,0.064 -0.32091,0.88677 -0.71314,1.82846 -5.95502,14.29729 -14.34042,27.57446 -24.93299,39.47811 -1.98387,2.22942 -8.36115,8.60671 -10.59057,10.59058 -9.74988,8.67601 -20.04821,15.62621 -31.41552,21.2019 -1.5538,0.76214 -2.88964,1.38571 -2.96853,1.38571 -0.0789,0 -0.12408,-0.0871 -0.10044,-0.19358 z"
       id="path4168"
       inkscape:connector-curvature="0"
       transform="translate(0,-364.96079)" />
    <path
       style="opacity:1;fill:#c5a800;fill-opacity:1;stroke:#58301e;stroke-width:0.13297872;stroke-miterlimit:4;stroke-dasharray:none;stroke-opacity:1"
       d=""
       id="path4170"
       inkscape:connector-curvature="0"
       transform="translate(0,-364.96079)" />
    <path
       style="opacity:1;fill:#c5a800;fill-opacity:1;stroke:#58301e;stroke-width:0.13297872;stroke-miterlimit:4;stroke-dasharray:none;stroke-opacity:1"
       d=""
       id="path4172"
       inkscape:connector-curvature="0"
       transform="translate(0,-364.96079)" />
    <path
       style="opacity:1;fill:#c5a800;fill-opacity:1;stroke:#58301e;stroke-width:0.13297872;stroke-miterlimit:4;stroke-dasharray:none;stroke-opacity:1"
       d=""
       id="path4174"
       inkscape:connector-curvature="0"
       transform="translate(0,-364.96079)" />
    <path
       style="opacity:1;fill:#c5a800;fill-opacity:1;stroke:#58301e;stroke-width:0.13297872;stroke-miterlimit:4;stroke-dasharray:none;stroke-opacity:1"
       d="m 401.59385,506.12322 c 0,-0.36569 0.0604,-0.51529 0.13414,-0.33244 0.0738,0.18284 0.0738,0.48204 0,0.66489 -0.0738,0.18285 -0.13414,0.0332 -0.13414,-0.33245 z"
       id="path4176"
       inkscape:connector-curvature="0"
       transform="translate(0,-364.96079)" />
    <path
       style="opacity:1;fill:#c5a800;fill-opacity:1;stroke:#58301e;stroke-width:0.13297872;stroke-miterlimit:4;stroke-dasharray:none;stroke-opacity:1"
       d=""
       id="path4178"
       inkscape:connector-curvature="0"
       transform="translate(0,-364.96079)" />
    <path
       style="opacity:1;fill:#c5a800;fill-opacity:1;stroke:#58301e;stroke-width:0.13297872;stroke-miterlimit:4;stroke-dasharray:none;stroke-opacity:1"
       d=""
       id="path4180"
       inkscape:connector-curvature="0"
       transform="translate(0,-364.96079)" />
    <path
       style="opacity:1;fill:#c5a800;fill-opacity:1;stroke:#58301e;stroke-width:0.04701508;stroke-miterlimit:4;stroke-dasharray:none;stroke-opacity:1"
       d="m 392.09887,541.17549 c -7.9e-4,-0.0557 0.10905,-0.37308 0.24408,-0.70523 1.02137,-2.51234 2.75303,-7.47761 3.70311,-10.61811 3.27392,-10.82204 5.07886,-21.20836 5.84992,-33.6628 0.15957,-2.57751 0.15906,-12.57444 -7.5e-4,-15.09184 -0.39163,-6.16764 -0.94733,-10.93123 -1.85699,-15.91823 -0.39056,-2.14116 -1.31836,-6.46041 -1.42474,-6.63271 -0.0264,-0.0427 0.0701,-0.0639 0.21438,-0.047 0.30719,0.036 0.25432,-0.12096 0.83541,2.47935 2.60664,11.66431 3.46635,25.27969 2.44593,38.73657 -1.00806,13.29378 -3.83651,26.27637 -8.34802,38.31729 -1.18179,3.15415 -1.16194,3.10925 -1.34417,3.03932 -0.0828,-0.0318 -0.18791,10e-4 -0.23362,0.0735 -0.0457,0.0722 -0.0837,0.0856 -0.0845,0.0299 z"
       id="path4182"
       inkscape:connector-curvature="0"
       transform="translate(0,-364.96079)" />
    <path
       style="opacity:1;fill:#c5a800;fill-opacity:1;stroke:#58301e;stroke-width:0.04701508;stroke-miterlimit:4;stroke-dasharray:none;stroke-opacity:1"
       d="m 362.82727,586.85793 c 4.03646,-4.19303 6.0644,-6.48012 9.11189,-10.27628 14.59262,-18.17754 24.38309,-39.69268 28.42722,-62.47047 0.3353,-1.88851 1.13407,-7.14023 1.13407,-7.45621 0,-0.064 0.0559,-0.0949 0.12423,-0.0687 0.14524,0.0557 0.16799,-0.1775 -0.31154,3.19515 -1.7384,12.2268 -5.26088,24.4839 -10.36056,36.05152 -1.1891,2.69723 -4.07834,8.51653 -5.44101,10.95888 -5.00589,8.9722 -10.58547,16.90649 -17.19227,24.44784 -2.42537,2.76844 -7.20291,7.76058 -7.42508,7.75861 -0.0694,-6.2e-4 0.80043,-0.96376 1.93305,-2.14031 z"
       id="path4184"
       inkscape:connector-curvature="0"
       transform="translate(0,-364.96079)" />
    <path
       style="opacity:1;fill:#c5a800;fill-opacity:1;stroke:#58301e;stroke-width:0.06648936;stroke-miterlimit:4;stroke-dasharray:none;stroke-opacity:1"
       d="m 191.03813,578.98973 c -1.04127,-0.99127 -1.26709,-1.43278 -0.96705,-1.89069 0.18113,-0.27644 1.25685,-0.7187 1.74812,-0.7187 0.0917,0 0.33513,-0.0692 0.54102,-0.15371 0.20589,-0.0846 0.43419,-0.1652 0.50733,-0.17922 0.0731,-0.014 0.17786,-0.0421 0.23271,-0.0624 0.0549,-0.0203 0.15958,-0.0518 0.23272,-0.0701 0.0731,-0.0183 0.16289,-0.0482 0.19946,-0.0665 0.0366,-0.0183 0.12633,-0.0482 0.19947,-0.0665 0.0731,-0.0183 0.14794,-0.0452 0.16623,-0.0598 0.0183,-0.0146 0.18284,-0.0537 0.36569,-0.087 0.18284,-0.0333 0.35251,-0.11893 0.37705,-0.19041 0.0245,-0.0715 0.0993,-0.0961 0.16622,-0.0548 0.0669,0.0413 0.12162,0.008 0.12162,-0.0735 0,-0.0818 0.0572,-0.11332 0.12712,-0.0701 0.0699,0.0432 0.53227,-0.11782 1.02748,-0.35783 0.78827,-0.38208 1.32291,-0.85871 4.29442,-3.82843 4.01104,-4.00863 12.69943,-13.03201 25.79941,-26.79415 12.29984,-12.92155 18.68883,-19.52156 23.75788,-24.54257 5.41544,-5.36411 7.72587,-7.42642 8.84269,-7.89306 0.44266,-0.18495 0.49867,-0.17855 0.92414,0.10567 0.95218,0.63607 2.97377,0.96932 4.50878,0.74326 0.54853,-0.0808 1.16808,-0.17065 1.37678,-0.19971 0.43727,-0.0609 1.37758,-0.5833 1.70892,-0.94943 0.41352,-0.45693 0.95635,-1.82411 0.98837,-2.48932 0.0571,-1.18678 0.19069,-1.6765 0.51525,-1.88916 0.4411,-0.28902 0.91436,-0.13123 3.65536,1.21874 2.9935,1.47433 5.02492,2.32679 7.43698,3.12083 2.30572,0.75903 5.70159,1.61742 6.49173,1.64093 0.31039,0.009 0.56471,0.0687 0.56516,0.13203 4e-4,0.0634 0.15041,0.0866 0.33325,0.0517 0.18285,-0.035 0.33245,-0.006 0.33245,0.0654 0,0.0709 0.14593,0.0923 0.3243,0.0476 0.17836,-0.0448 0.35776,-0.0272 0.39865,0.0389 0.0409,0.0662 0.26897,0.11769 0.50682,0.11449 0.23786,-0.003 1.21072,0.0922 2.16193,0.21206 4.58631,0.57778 11.99842,0.55429 16.22266,-0.0514 1.3098,-0.18781 2.08024,-0.27351 2.42027,-0.26924 0.16094,0.002 0.32407,-0.0472 0.36252,-0.10943 0.0385,-0.0622 0.22094,-0.0842 0.40553,-0.0489 0.18459,0.0353 0.33562,0.006 0.33562,-0.0659 0,-0.0715 0.1496,-0.10144 0.33245,-0.0665 0.18284,0.0349 0.33244,0.002 0.33244,-0.0725 0,-0.0748 0.10472,-0.10896 0.23272,-0.0759 0.66192,0.17111 6.88971,-1.69908 9.79587,-2.94168 2.87468,-1.22915 7.89172,-3.97074 8.79032,-4.80355 0.17249,-0.15985 0.34581,-0.25844 0.38518,-0.21908 0.0394,0.0394 0.10917,-0.0264 0.15511,-0.14617 0.046,-0.11975 0.13413,-0.18648 0.19594,-0.14829 0.0618,0.0382 0.17821,-0.0536 0.25869,-0.20395 0.0805,-0.15038 0.19689,-0.24216 0.2587,-0.20396 0.0618,0.0382 0.14814,-0.0238 0.19186,-0.13768 0.0437,-0.11392 0.13975,-0.16989 0.21339,-0.12437 0.0737,0.0455 0.13392,0.0309 0.13392,-0.0324 0,-0.0634 0.40321,-0.41096 0.89602,-0.77248 3.87659,-2.8438 8.49429,-7.31375 11.61477,-11.24314 1.35285,-1.70353 3.58927,-5.01757 4.63005,-6.86102 1.78611,-3.16355 3.64874,-7.45259 4.92938,-11.35075 0.37103,-1.12939 0.73525,-2.1606 0.80936,-2.29157 0.0741,-0.13097 0.0993,-0.29553 0.0559,-0.36569 -0.0434,-0.0702 -0.009,-0.12757 0.0775,-0.12757 0.0896,0 0.12736,-0.11083 0.0885,-0.25958 -0.0373,-0.14277 -0.0162,-0.27741 0.0471,-0.2992 0.16964,-0.0585 0.87809,-3.01834 1.10756,-4.62739 0.34993,-2.45369 0.25204,-10.72863 -0.19192,-16.2234 -0.18384,-2.27541 -0.61421,-5.51284 -0.94576,-7.11437 -0.15141,-0.73138 -0.29098,-1.44946 -0.31017,-1.59574 -0.0192,-0.14628 -0.0464,-0.26596 -0.0604,-0.26596 -0.014,0 -0.0456,-0.20746 -0.0703,-0.46103 -0.0247,-0.25356 -0.11095,-0.48307 -0.1918,-0.51002 -0.0808,-0.0269 -0.11257,-0.10472 -0.0705,-0.17281 0.1175,-0.19013 -0.55537,-2.37268 -1.36922,-4.44124 -0.84143,-2.13869 -2.62933,-5.78458 -2.83667,-5.78458 -0.077,0 -0.10301,-0.0598 -0.0578,-0.13298 0.0452,-0.0731 0.0153,-0.13298 -0.0665,-0.13298 -0.0818,0 -0.11169,-0.0598 -0.0665,-0.13298 0.0452,-0.0731 0.0153,-0.13297 -0.0665,-0.13297 -0.0818,0 -0.11304,-0.0577 -0.0695,-0.12813 0.0436,-0.0705 -0.0377,-0.24501 -0.18054,-0.38786 -0.14285,-0.14285 -0.22482,-0.29463 -0.18216,-0.33729 0.0427,-0.0427 0.004,-0.0776 -0.0854,-0.0776 -0.0896,0 -0.126,-0.0598 -0.0808,-0.13297 0.0452,-0.0731 0.0188,-0.13298 -0.0587,-0.13298 -0.0774,0 -0.14082,-0.0898 -0.14082,-0.19947 0,-0.10971 -0.0634,-0.19947 -0.14082,-0.19947 -0.0775,0 -0.10701,-0.0547 -0.0657,-0.12162 0.0413,-0.0669 0.0261,-0.14169 -0.0338,-0.16622 -0.094,-0.0385 -2.04295,-3.01311 -2.46873,-3.76801 -0.0825,-0.14628 -0.20563,-0.30605 -0.27362,-0.35506 -0.068,-0.049 -0.13653,-0.17707 -0.15231,-0.28459 -0.0158,-0.10752 -0.32536,-0.63591 -0.68794,-1.1742 -0.88692,-1.3167 -2.46139,-3.94335 -2.6798,-4.47066 -0.0971,-0.23438 -0.13952,-0.52254 -0.0943,-0.64037 0.0707,-0.18428 0.189,-0.1541 0.84626,0.21596 1.92975,1.08649 13.74904,8.68945 28.95555,18.62613 4.9734,3.24987 12.60679,8.23748 16.96308,11.08358 l 7.92055,5.17473 0.88002,3.53011 c 0.48402,1.94157 0.85687,3.55328 0.82855,3.5816 -0.23781,0.23781 -0.49531,-0.48361 -1.23344,-3.45554 l -0.83804,-3.37424 -10.26568,-6.71286 c -31.18317,-20.39106 -43.24572,-28.17057 -43.416,-28.00029 -0.0962,0.0962 1.22934,2.28028 3.43355,5.6573 3.31134,5.07322 4.83851,7.7494 6.1792,10.82832 2.92875,6.72592 4.0908,14.20345 4.11391,26.47221 0.0117,6.20379 -0.21554,7.63492 -2.13252,13.43085 -2.6189,7.91812 -5.6418,13.76337 -9.86858,19.08245 -4.50787,5.67281 -10.74908,11.16963 -16.83099,14.82353 -6.64199,3.99041 -13.30869,6.19179 -21.82404,7.20643 -2.84244,0.33868 -11.84574,0.342 -14.79478,0.005 -7.38506,-0.8428 -12.48423,-2.32298 -19.11332,-5.54817 -1.38881,-0.67569 -2.74084,-1.25746 -3.0045,-1.29282 l -0.47939,-0.0643 -0.0845,0.99922 c -0.20609,2.43806 -1.20374,3.84946 -3.14854,4.45434 -0.55054,0.17124 -1.1917,0.22547 -2.59308,0.21936 -1.59869,-0.007 -1.96802,-0.05 -2.61422,-0.30422 -0.41388,-0.16286 -0.82513,-0.3836 -0.91389,-0.49055 -0.2766,-0.33329 -0.6033,-0.22008 -1.67979,0.58212 -3.28385,2.44709 -10.607,9.82724 -31.16174,31.40429 -20.24136,21.24808 -28.80354,30.03617 -29.8873,30.67589 -1.06192,0.62681 -3.07561,1.3275 -5.85078,2.03585 -0.9297,0.2373 -0.75972,0.67457 0.77605,1.99637 0.86206,0.74195 0.90041,0.79721 0.55328,0.79721 -0.27654,0 -0.60331,-0.21927 -1.2638,-0.84806 z"
       id="path4188"
       inkscape:connector-curvature="0"
       transform="translate(0,-364.96079)" />
    <path
       style="opacity:1;fill:#c5a800;fill-opacity:1;stroke:#58301e;stroke-width:0.03324468;stroke-miterlimit:4;stroke-dasharray:none;stroke-opacity:1"
       d="m 205.56236,589.26198 c -6.43776,-4.27068 -10.09693,-6.7819 -12.33378,-8.46442 -1.33067,-1.00091 -1.52161,-1.15691 -1.32979,-1.08646 0.26591,0.0977 0.51396,0.11286 0.56241,0.0345 0.0331,-0.0536 0.39168,0.17734 1.10633,0.71249 2.25296,1.68713 6.38007,4.51077 12.92458,8.84261 2.28498,1.51243 4.16746,2.76283 4.18329,2.77867 0.0158,0.0158 -0.16319,0.0285 -0.39784,0.0282 l -0.42664,-6.1e-4 -4.28856,-2.84495 z"
       id="path4190"
       inkscape:connector-curvature="0"
       transform="translate(0,-364.96079)" />
    <path
       style="opacity:1;fill:#c5a800;fill-opacity:1;stroke:#58301e;stroke-width:0.03324468;stroke-miterlimit:4;stroke-dasharray:none;stroke-opacity:1"
       d="m 191.05012,579.79101 c -3.46544,-2.26932 -6.28787,-4.13896 -6.27207,-4.15476 0.0158,-0.0158 0.26187,0.0496 0.54682,0.14528 1.52047,0.51067 2.49548,0.66084 4.31328,0.66433 l 1.46277,0.003 -0.42091,0.14047 c -0.88896,0.29665 -1.05526,0.83585 -0.50339,1.63219 0.521,0.7518 2.72673,2.49857 6.19358,4.90484 1.01232,0.70264 1.15565,0.81353 1.03059,0.79734 -0.0274,-0.004 -2.88523,-1.86317 -6.35067,-4.13249 z"
       id="path4192"
       inkscape:connector-curvature="0"
       transform="translate(0,-364.96079)" />
    <path
       style="opacity:1;fill:#c5a800;fill-opacity:1;stroke:#58301e;stroke-width:0.01662234;stroke-miterlimit:4;stroke-dasharray:none;stroke-opacity:1"
       d="m 234.85522,534.62713 c 0.0251,-0.0315 3.83121,-4.0595 8.45803,-8.95113 4.62682,-4.89162 9.74864,-10.3076 11.38182,-12.03549 1.63319,-1.72789 3.04257,-3.21631 3.13197,-3.3076 l 0.16254,-0.16598 0.73412,0.73411 0.73411,0.73412 -0.17742,-0.0146 c -0.31221,-0.0257 -0.68311,0.14697 -1.37054,0.63813 -1.62138,1.15843 -4.15346,3.51517 -9.1973,8.56038 -3.7045,3.70552 -6.59889,6.67019 -11.63006,11.91248 l -1.8742,1.95286 -0.19935,0 c -0.18413,0 -0.19586,-0.004 -0.15372,-0.0573 z"
       id="path4194"
       inkscape:connector-curvature="0"
       transform="translate(0,-364.96079)" />
    <path
       style="opacity:1;fill:#c5a800;fill-opacity:1;stroke:#58301e;stroke-width:0.01662234;stroke-miterlimit:4;stroke-dasharray:none;stroke-opacity:1"
       d="m 285.84832,513.01826 c -0.79193,-0.14096 -2.7618,-0.62776 -4.13896,-1.02284 -3.20873,-0.92051 -5.79251,-1.95757 -9.51959,-3.82092 -1.82208,-0.91095 -2.349,-1.13654 -2.83649,-1.21442 -0.3415,-0.0546 -0.53635,-0.002 -0.73056,0.19781 -0.0888,0.0913 -0.16464,0.2051 -0.1784,0.26775 -0.0351,0.15965 -0.0702,0.0642 -0.0934,-0.25373 -0.027,-0.36983 -0.10399,-0.72704 -0.25388,-1.17767 -0.0699,-0.21028 -0.12296,-0.3869 -0.11782,-0.3925 0.005,-0.006 0.22419,0.12256 0.48676,0.28481 5.07666,3.13699 11.05622,5.60325 16.90027,6.97052 0.3657,0.0856 0.67986,0.16101 0.69814,0.16767 0.0454,0.0166 -0.11347,0.0118 -0.21609,-0.006 z"
       id="path4196"
       inkscape:connector-curvature="0"
       transform="translate(0,-364.96079)" />
    <path
       style="opacity:1;fill:#c5a800;fill-opacity:1;stroke:#58301e;stroke-width:0.01662234;stroke-miterlimit:4;stroke-dasharray:none;stroke-opacity:1"
       d="m 265.71627,512.31274 c 1.16302,-0.6948 1.97557,-1.68866 2.39349,-2.92758 0.12543,-0.37183 0.15117,-0.35726 0.0679,0.0385 -0.13185,0.6268 -0.49827,1.4859 -0.8072,1.89254 -0.31196,0.41062 -0.75916,0.72792 -1.35204,0.95931 -0.48882,0.19078 -0.57745,0.20171 -0.30217,0.0373 z"
       id="path4198"
       inkscape:connector-curvature="0"
       transform="translate(0,-364.96079)" />
    <path
       style="opacity:1;fill:#fdd803;fill-opacity:1;stroke:#58301e;stroke-width:0.03324468;stroke-miterlimit:4;stroke-dasharray:none;stroke-opacity:1"
       d="m 344.12219,419.94214 c -2.8475,-3.53876 -6.3146,-6.93477 -9.88295,-9.68032 -0.37518,-0.28867 -0.67114,-0.53587 -0.65768,-0.54932 0.0135,-0.0135 2.53452,1.61558 5.60236,3.62009 3.06784,2.00451 5.91554,3.86425 6.32823,4.13276 0.41269,0.26851 0.73561,0.50293 0.71761,0.52093 -0.018,0.018 -0.2659,-0.11636 -0.55087,-0.29859 -0.28498,-0.18223 -0.9188,-0.57644 -1.40848,-0.87601 -1.42149,-0.86964 -1.57513,-0.92779 -1.7587,-0.66571 -0.1736,0.24786 0.0262,0.72465 0.97057,2.31648 0.29469,0.49672 0.75875,1.25644 1.03123,1.68825 0.27249,0.43182 0.48456,0.79599 0.47128,0.80928 -0.0133,0.0133 -0.40145,-0.44475 -0.8626,-1.01784 z"
       id="path4200"
       inkscape:connector-curvature="0"
       transform="translate(0,-364.96079)" />
    <path
       style="opacity:1;fill:#fdd803;fill-opacity:1;stroke:#58301e;stroke-width:0.26595744;stroke-miterlimit:4;stroke-dasharray:none;stroke-opacity:1"
       d="m 255.71436,628.16002 c -56.29964,-3.04241 -105.66726,-40.86598 -123.55247,-94.66113 -4.96183,-14.92423 -6.92054,-27.34432 -6.92054,-43.88298 0,-12.16343 0.80708,-19.8903 3.19174,-30.55724 8.88958,-39.76452 35.75809,-74.37243 72.11144,-92.88295 20.22125,-10.29632 40.38723,-15.12364 63.17855,-15.12364 37.73515,0 71.33536,13.86939 97.89498,40.40878 11.86233,11.85329 19.28812,22.13755 26.54159,36.75846 3.95288,7.96785 8.74998,20.21441 8.43016,21.52139 -0.0847,0.34605 -9.24971,-5.30104 -20.36673,-12.54908 -11.11702,-7.24805 -23.08511,-15.04559 -26.59575,-17.32787 -3.51063,-2.28229 -10.09308,-6.57817 -14.62766,-9.54642 -4.53457,-2.96824 -9.92903,-6.13379 -11.98769,-7.03455 -16.49683,-7.21816 -34.05441,-6.89382 -49.98039,0.92329 -28.98808,14.2285 -40.78736,49.44428 -26.25569,78.36195 l 1.53696,3.05852 -1.82855,0 c -4.1997,0 -6.78242,4.61392 -4.62733,8.26652 0.61678,1.04537 1.12142,1.98518 1.12142,2.08846 0,0.18089 -57.73128,53.05393 -61.86927,56.66281 -3.11116,2.71335 -4.80916,6.4681 -4.81248,10.64178 -0.004,5.22131 2.30569,9.09928 7.10728,11.93236 1.60904,0.94938 15.25266,9.82324 30.31915,19.71968 15.06649,9.89644 32.42021,21.21422 38.56383,25.15063 14.47934,9.27737 13.59123,8.64272 11.95346,8.54188 -0.72334,-0.0445 -4.56004,-0.25633 -8.52601,-0.47065 z"
       id="path4202"
       inkscape:connector-curvature="0"
       transform="translate(0,-364.96079)" />
  </g>
</svg>
