<?xml version="1.0" encoding="UTF-8" standalone="no"?>
<!-- Created with Inkscape (http://www.inkscape.org/) -->

<svg
   xmlns:dc="http://purl.org/dc/elements/1.1/"
   xmlns:cc="http://creativecommons.org/ns#"
   xmlns:rdf="http://www.w3.org/1999/02/22-rdf-syntax-ns#"
   xmlns:svg="http://www.w3.org/2000/svg"
   xmlns="http://www.w3.org/2000/svg"
   xmlns:sodipodi="http://sodipodi.sourceforge.net/DTD/sodipodi-0.dtd"
   xmlns:inkscape="http://www.inkscape.org/namespaces/inkscape"
   width="600mm"
   height="400mm"
   viewBox="0 0 2125.9843 1417.3228"
   id="svg2"
   version="1.1"
   inkscape:version="0.91 r13725"
   sodipodi:docname="logo 9.svg"
   inkscape:export-filename="C:\Users\Diogo Cordeiro\Desktop\Logo\Logo 8.png"
   inkscape:export-xdpi="90"
   inkscape:export-ydpi="90">
  <defs
     id="defs4" />
  <sodipodi:namedview
     id="base"
     pagecolor="#ffffff"
     bordercolor="#666666"
     borderopacity="1.0"
     inkscape:pageopacity="0.0"
     inkscape:pageshadow="2"
     inkscape:zoom="0.47"
     inkscape:cx="769.48794"
     inkscape:cy="1070.3882"
     inkscape:document-units="px"
     inkscape:current-layer="layer1"
     showgrid="false"
     inkscape:window-width="1920"
     inkscape:window-height="1017"
     inkscape:window-x="-8"
     inkscape:window-y="-8"
     inkscape:window-maximized="1" />
  <metadata
     id="metadata7">
    <rdf:RDF>
      <cc:Work
         rdf:about="">
        <dc:format>image/svg+xml</dc:format>
        <dc:type
           rdf:resource="http://purl.org/dc/dcmitype/StillImage" />
        <dc:title></dc:title>
      </cc:Work>
    </rdf:RDF>
  </metadata>
  <g
     inkscape:label="Camada 1"
     inkscape:groupmode="layer"
     id="layer1"
     transform="translate(0,364.96067)">
    <text
       xml:space="preserve"
       style="font-style:normal;font-variant:normal;font-weight:normal;font-stretch:normal;font-size:401.67990112px;line-height:125%;font-family:'Microsoft Yi Baiti';-inkscape-font-specification:'Microsoft Yi Baiti, Normal';text-align:start;letter-spacing:0px;word-spacing:0px;writing-mode:lr-tb;text-anchor:start;fill:#3d3d3d;fill-opacity:1;stroke:#3d3d3d;stroke-width:2.12476754;stroke-linecap:butt;stroke-linejoin:miter;stroke-miterlimit:4;stroke-dasharray:none;stroke-opacity:1;"
       x="471.50943"
       y="203.41177"
       id="text3336"
       sodipodi:linespacing="125%"
       transform="scale(0.84876286,1.1781854)"><tspan
         sodipodi:role="line"
         id="tspan3338"
         x="471.50943"
         y="203.41177"
         style="letter-spacing:-34.72006607px;stroke-width:2.12476754;stroke:#3d3d3d;stroke-opacity:1;fill:#3d3d3d;fill-opacity:1;">LOST</tspan></text>
    <text
       xml:space="preserve"
       style="font-style:normal;font-variant:normal;font-weight:normal;font-stretch:normal;font-size:394.30258179px;line-height:125%;font-family:'Microsoft Yi Baiti';-inkscape-font-specification:'Microsoft Yi Baiti, Normal';text-align:start;letter-spacing:0px;word-spacing:0px;writing-mode:lr-tb;text-anchor:start;fill:#f9a025;fill-opacity:1;stroke:#fdd803;stroke-width:29.5477581;stroke-linecap:butt;stroke-linejoin:miter;stroke-miterlimit:4;stroke-dasharray:none;stroke-opacity:1;"
       x="1176.7983"
       y="204.80292"
       id="text3336-4"
       sodipodi:linespacing="125%"
       transform="scale(0.88820152,1.1258706)"><tspan
         sodipodi:role="line"
         id="tspan3338-7"
         x="1176.7983"
         y="204.80292"
         style="stroke-width:29.5477581;stroke-miterlimit:4;stroke-dasharray:none;fill:#f9a025;fill-opacity:1;stroke:#fdd803;stroke-opacity:1;">FOUND</tspan></text>
    <text
       xml:space="preserve"
       style="font-style:normal;font-weight:normal;font-size:198.66369629px;line-height:125%;font-family:sans-serif;letter-spacing:0px;word-spacing:0px;fill:#3d3d3d;fill-opacity:1;stroke:none;stroke-width:1px;stroke-linecap:butt;stroke-linejoin:miter;stroke-opacity:1;"
       x="939.98523"
       y="243.40073"
       id="text4158"
       sodipodi:linespacing="125%"><tspan
         sodipodi:role="line"
         id="tspan4160"
         x="939.98523"
         y="243.40073"
         style="font-style:normal;font-variant:normal;font-weight:normal;font-stretch:normal;font-size:198.66371155px;line-height:125%;font-family:'Microsoft Yi Baiti';-inkscape-font-specification:'Microsoft Yi Baiti, Normal';text-align:start;writing-mode:lr-tb;text-anchor:start;fill:#3d3d3d;fill-opacity:1;">&amp;</tspan></text>
    <path
       style="opacity:1;fill:#c5a800;fill-opacity:1;stroke:#58301e;stroke-width:0.13297872;stroke-miterlimit:4;stroke-dasharray:none;stroke-opacity:1"
       d=""
       id="path4170"
       inkscape:connector-curvature="0"
       transform="translate(0,-364.96079)" />
    <path
       style="opacity:1;fill:#c5a800;fill-opacity:1;stroke:#58301e;stroke-width:0.13297872;stroke-miterlimit:4;stroke-dasharray:none;stroke-opacity:1"
       d=""
       id="path4172"
       inkscape:connector-curvature="0"
       transform="translate(0,-364.96079)" />
    <path
       style="opacity:1;fill:#c5a800;fill-opacity:1;stroke:#58301e;stroke-width:0.13297872;stroke-miterlimit:4;stroke-dasharray:none;stroke-opacity:1"
       d=""
       id="path4174"
       inkscape:connector-curvature="0"
       transform="translate(0,-364.96079)" />
    <path
       style="opacity:1;fill:#c5a800;fill-opacity:1;stroke:#58301e;stroke-width:0.13297872;stroke-miterlimit:4;stroke-dasharray:none;stroke-opacity:1"
       d=""
       id="path4178"
       inkscape:connector-curvature="0"
       transform="translate(0,-364.96079)" />
    <path
       style="opacity:1;fill:#c5a800;fill-opacity:1;stroke:#58301e;stroke-width:0.13297872;stroke-miterlimit:4;stroke-dasharray:none;stroke-opacity:1"
       d=""
       id="path4180"
       inkscape:connector-curvature="0"
       transform="translate(0,-364.96079)" />
    <g
       id="g4518"
       transform="matrix(0.57613027,0,0,0.57613027,114.21281,-44.063451)">
      <circle
         id="circle4520"
         r="256"
         cy="256"
         cx="256"
         style="fill:#f9a025" />
      <path
         id="path4522"
         d="M 508.496,213.902 314.969,87.457 l 0,122.469 -58,0 -0.723,256.203 61.57,38.313 C 429.328,476.781 512,376.066 512,256 c 0,-14.344 -1.238,-28.395 -3.504,-42.098 z"
         inkscape:connector-curvature="0"
         style="fill:#c57103" />
      <g
         id="g4524">
        <path
           id="path4526"
           d="m 374.793,191.34 c 0,65.469 -118.547,274.789 -118.547,274.789 0,0 -118.539,-209.32 -118.539,-274.789 0,-65.469 53.07,-118.543 118.539,-118.543 65.469,0 118.547,53.074 118.547,118.543 z"
           inkscape:connector-curvature="0"
           style="fill:#ff3000" />
        <path
           id="path4528"
           d="m 256.246,72.797 0,393.332 c 0,0 118.547,-209.32 118.547,-274.789 0,-65.469 -53.078,-118.543 -118.547,-118.543 z"
           inkscape:connector-curvature="0"
           style="fill:#bc0b00" />
        <path
           id="path4530"
           d="m 333.918,191.34 c 0,42.898 -34.773,77.672 -77.672,77.672 -42.891,0 -77.672,-34.773 -77.672,-77.672 0,-42.891 34.781,-77.664 77.672,-77.664 42.899,0 77.672,34.773 77.672,77.664 z"
           inkscape:connector-curvature="0"
           style="fill:#fffff5" />
        <path
           id="path4532"
           d="m 256.246,113.676 0,155.336 c 42.898,0 77.672,-34.773 77.672,-77.672 0,-42.891 -34.773,-77.664 -77.672,-77.664 z"
           inkscape:connector-curvature="0"
           style="fill:#f4f3e1" />
      </g>
    </g>
    <path
       style="opacity:1;fill:#fdd803;fill-opacity:1;stroke:#fdd803;stroke-width:0.26595744;stroke-miterlimit:4;stroke-dasharray:none;stroke-opacity:1"
       d="m 250.46403,615.27087 c -1.31649,-0.0984 -5.74468,-0.65199 -9.84043,-1.23015 -31.24604,-4.41074 -59.9584,-18.7561 -82.48369,-41.21076 -8.59112,-8.56418 -12.80585,-13.68112 -19.29204,-23.42164 -25.79297,-38.73412 -31.5553,-89.01094 -15.17015,-132.36086 26.92343,-71.23084 102.207,-110.25548 175.59708,-91.02399 19.43265,5.09223 39.01167,14.97487 54.91263,27.71755 5.88794,4.71846 17.44687,16.26753 22.01984,22.00105 10.58196,13.26751 19.82115,30.17468 24.99791,45.74468 2.66082,8.00288 5.92671,20.83788 5.53592,21.75624 -0.088,0.20686 -24.78949,-15.72404 -54.89213,-35.40201 -30.10265,-19.67797 -56.55211,-36.65385 -58.7766,-37.72419 -10.8456,-5.21848 -19.52458,-7.27977 -30.64026,-7.27717 -8.61481,0.002 -14.91098,0.96045 -22.14478,3.37098 -21.42713,7.14019 -37.94944,24.41925 -44.26491,46.29233 -3.30047,11.43091 -3.27467,22.10161 0.0847,35.04765 6.88218,26.52154 27.8663,72.7553 59.02728,130.05319 l 6.3641,11.70213 17.2141,10.74727 c 9.46775,5.91101 17.28656,10.96466 17.37512,11.23035 0.0886,0.26568 -0.62592,0.62497 -1.58774,0.79843 -15.91247,2.86958 -22.96468,3.58852 -33.92962,3.45899 -4.24202,-0.0501 -8.78989,-0.17164 -10.10638,-0.27007 z"
       id="path4556"
       inkscape:connector-curvature="0"
       transform="translate(0,-364.96079)" />
    <path
       style="opacity:1;fill:#d4aa00;fill-opacity:1;stroke:#fdd803;stroke-width:0.26595744;stroke-miterlimit:4;stroke-dasharray:none;stroke-opacity:1"
       d="m 280.25126,600.72832 c -9.21543,-5.80658 -17.06167,-10.75204 -17.4361,-10.98992 -0.50577,-0.32131 1.11255,-3.71445 6.29484,-13.19846 21.74656,-39.79797 40.56177,-78.83736 50.50266,-104.78723 10.83756,-28.29054 12.69278,-41.04659 8.43233,-57.97873 -2.71676,-10.79709 -8.0446,-20.33429 -16.71457,-29.92021 -1.91835,-2.12101 -3.3641,-3.85638 -3.21278,-3.85638 0.29314,0 14.24226,9.02239 65.75064,42.52799 17.69947,11.51329 32.40644,21.13406 32.68217,21.37948 1.6999,1.51309 2.93069,24.80679 1.9211,36.35848 -3.17541,36.33286 -18.19552,68.22706 -43.98272,93.39435 -15.54157,15.16796 -32.58862,25.91804 -52.73959,33.25823 -4.33259,1.57818 -14.13464,4.54763 -14.58087,4.41714 -0.089,-0.026 -7.70168,-4.79816 -16.91711,-10.60474 z"
       id="path4560"
       inkscape:connector-curvature="0"
       transform="translate(0,-364.96079)" />
  </g>
</svg>
